<?xml version="1.0" encoding="UTF-8" standalone="no"?>
<svg
   width="162.83688"
   height="40.478771"
   viewBox="0 0 162.8369 40.478772"
   data-svgdocument=""
   id="_lr9-iFaPI5PJme29wZfSm"
   class="fl-svgdocument"
   x="0"
   y="0"
   overflow="hidden"
   data-bbox="26.99636363636361 211.7422211541945 380.73428359340824 138.24000000000007"
   version="1.1"
   sodipodi:docname="dan-jose-logo.svg"
   inkscape:version="1.2.2 (b0a8486541, 2022-12-01)"
   xmlns:inkscape="http://www.inkscape.org/namespaces/inkscape"
   xmlns:sodipodi="http://sodipodi.sourceforge.net/DTD/sodipodi-0.dtd"
   xmlns="http://www.w3.org/2000/svg"
   xmlns:svg="http://www.w3.org/2000/svg">
  <sodipodi:namedview
     id="namedview63"
     pagecolor="#ffffff"
     bordercolor="#000000"
     borderopacity="0.25"
     inkscape:showpageshadow="2"
     inkscape:pageopacity="0.0"
     inkscape:pagecheckerboard="0"
     inkscape:deskcolor="#d1d1d1"
     showgrid="false"
     inkscape:zoom="5.6937593"
     inkscape:cx="55.850622"
     inkscape:cy="10.098776"
     inkscape:window-width="1920"
     inkscape:window-height="1009"
     inkscape:window-x="0"
     inkscape:window-y="0"
     inkscape:window-maximized="1"
     inkscape:current-layer="_lr9-iFaPI5PJme29wZfSm"
     showguides="true">
    <sodipodi:guide
       position="144.76379,32.169382"
       orientation="1,0"
       id="guide294"
       inkscape:locked="false" />
    <sodipodi:guide
       position="292.52884,39.613465"
       orientation="1,0"
       id="guide296"
       inkscape:locked="false" />
    <sodipodi:guide
       position="84.707248,4.0997599"
       orientation="0,-1"
       id="guide365"
       inkscape:locked="false" />
    <sodipodi:guide
       position="159.27975,105.8658"
       orientation="0,-1"
       id="guide367"
       inkscape:locked="false" />
    <sodipodi:guide
       position="179.56925,56.411463"
       orientation="1,0"
       id="guide369"
       inkscape:locked="false" />
    <sodipodi:guide
       position="84.466714,37.008036"
       orientation="1,0"
       id="guide371"
       inkscape:locked="false" />
    <sodipodi:guide
       position="157.25003,65.893509"
       orientation="0,-1"
       id="guide414"
       inkscape:locked="false" />
    <sodipodi:guide
       position="71.760092,35.796498"
       orientation="0,-1"
       id="guide456"
       inkscape:locked="false" />
  </sodipodi:namedview>
  <defs
     id="_7necuSeiwZem2tzov_SuH"
     transform="matrix(0.8110002279281616, 0, 0, 0.8110002279281616, -29.39171600341797, 154.6776885986328)">
    <linearGradient
       x1="0"
       y1="-15414"
       x2="512"
       y2="-15414"
       id="o_f5cl0dc5d_3"
       gradientUnits="userSpaceOnUse">
      <stop
         offset="37%"
         stop-color="rgb(133,0,243)"
         stop-opacity="0.646268702265042"
         id="stop48" />
      <stop
         offset="100%"
         stop-color="rgb(83,0,255)"
         stop-opacity="1"
         id="stop50" />
    </linearGradient>
  </defs>
  <path
     text="Dan José"
     text-anchor="start"
     font-size="60px"
     letter-spacing="0"
     side="left"
     offset="0"
     dx="0"
     dy="0"
     space="preserve"
     href=""
     font-family="'Fjalla One'"
     font-scale="contain"
     x="0"
     y="0"
     fill="rgba(101, 3, 208, 1)"
     data-fl-textpath=""
     id="_rtUsJA2clZW54xr8KcLKZ"
     d="M 45.004802,36.030546 V 6.5466075 h 4.642957 q 1.054683,0 2.180067,0.058901 1.131278,0.064807 2.209529,0.3711979 1.084138,0.3122798 2.038646,0.960412 0.960404,0.6481279 1.685129,1.8147564 0.724729,1.1607402 1.148962,2.9342572 0.418334,1.76762 0.418334,4.318885 v 0 8.567077 q 0,2.55127 -0.418334,4.330674 -0.424233,1.779407 -1.148962,2.934256 -0.724725,1.154846 -1.685129,1.802973 -0.954508,0.648128 -2.038646,0.960411 -1.078251,0.306385 -2.209529,0.371199 -1.125384,0.05893 -2.180067,0.05893 v 0 z m 4.472086,-3.122797 h 1.137164 q 1.207885,0 1.991527,-0.31228 0.789543,-0.312282 1.243226,-1.095928 0.459583,-0.783646 0.630453,-2.138822 0.170869,-1.355176 0.170869,-3.429188 v 0 -9.150393 q 0,-2.068116 -0.170869,-3.423294 Q 54.308388,12.00267 53.848805,11.21902 53.395122,10.429483 52.605579,10.123096 51.821937,9.8108158 50.614052,9.8108158 v 0 h -1.137164 z m 16.84778,3.382047 v 0 q -1.107706,0 -1.962049,-0.441905 -0.854358,-0.436012 -1.443576,-1.196091 -0.583307,-0.760079 -0.889689,-1.808867 -0.300497,-1.042896 -0.300497,-2.268449 v 0 q 0,-1.467125 0.365299,-2.604295 0.359434,-1.143065 1.060575,-2.056338 0.701154,-0.913271 1.732266,-1.667453 1.037005,-0.748293 2.403972,-1.419992 v 0 q 0.654023,-0.329954 1.473017,-0.665805 0.819012,-0.335847 1.461231,-0.57742 v 0 -3.140478 q 0,-0.695261 -0.05302,-1.290365 -0.05302,-0.595099 -0.253368,-1.031112 -0.194432,-0.441903 -0.595088,-0.695265 -0.394759,-0.247468 -1.084145,-0.247468 v 0 q -0.465473,0 -0.907364,0.170869 -0.441919,0.176765 -0.777754,0.589211 -0.335848,0.412445 -0.536182,1.101816 -0.194446,0.695266 -0.194446,1.7087 v 0 1.037006 H 62.488942 Q 62.335745,19.1144 62.259163,18.554654 62.176713,17.989016 62.176713,17.44105 v 0 q 0,-1.331607 0.459604,-2.350939 0.459564,-1.019324 1.278569,-1.708697 0.818999,-0.689371 1.956169,-1.042897 1.143061,-0.353522 2.504141,-0.353522 v 0 q 1.779398,0 2.951919,0.388873 1.172531,0.388878 1.873663,1.166633 0.701162,0.771859 0.983999,1.950272 0.282807,1.172524 0.282807,2.739815 v 0 17.799958 h -3.240641 l -0.312267,-2.038658 q -0.707065,1.01933 -1.89137,1.661564 -1.184301,0.636344 -2.698562,0.636344 z m 1.932612,-3.364373 v 0 q 0.547949,0 1.078244,-0.28871 0.524378,-0.282821 0.889693,-0.695268 v 0 -7.441687 q -0.347632,0.135524 -0.777748,0.329954 -0.430129,0.188546 -0.930945,0.500828 v 0 q -0.471367,0.288714 -0.919157,0.707046 -0.447796,0.412446 -0.801325,0.983977 -0.353516,0.565641 -0.571548,1.284474 -0.212096,0.71883 -0.212096,1.59675 v 0 q 0,1.361071 0.53617,2.191853 0.530303,0.830783 1.708712,0.830783 z m 10.735536,3.105123 V 12.261918 h 3.364367 l 0.400654,2.53359 v 0.01768 q 0.512638,-0.807214 1.107722,-1.355178 0.600994,-0.54207 1.237332,-0.872027 0.636358,-0.324063 1.302152,-0.465473 0.665815,-0.135523 1.319831,-0.135523 v 0 q 2.091683,0 3.222979,1.461233 1.131263,1.455341 1.131263,4.371918 v 0 18.2124 H 87.707197 V 17.977234 q 0,-1.573184 -0.483165,-2.185959 -0.483146,-0.612778 -1.414106,-0.612778 v 0 q -0.653995,0 -1.302124,0.430125 -0.648128,0.43012 -1.148971,1.190196 v 0 19.231733 z m 28.980094,0.276928 v 0 q -1.65568,0 -2.77518,-0.518503 -1.12541,-0.518503 -1.80888,-1.408207 -0.67758,-0.889702 -0.97217,-2.079901 -0.2946,-1.190198 -0.2946,-2.521807 v 0 q 0,-0.930949 0.12372,-2.097581 0.11784,-1.160736 0.35939,-2.33326 v 0 h 3.57653 l -0.053,3.588273 q 0,1.137169 0.10025,1.909033 0.10598,0.765971 0.32406,1.225551 0.21214,0.45369 0.54798,0.654019 0.34173,0.200332 0.82489,0.200332 v 0 q 0.39476,0 0.71293,-0.159086 0.31819,-0.153195 0.54205,-0.54207 0.22393,-0.388878 0.34767,-1.054683 0.12373,-0.665803 0.12373,-1.661565 v 0 l 0.047,-22.9614115 h 4.47206 V 28.883461 q 0,2.280233 -0.5185,3.729682 -0.51849,1.449452 -1.39053,2.268449 -0.87202,0.818998 -1.98562,1.125385 -1.11361,0.300497 -2.30381,0.300497 z m 16.84682,-0.01767 v 0 q -0.75421,0 -1.54375,-0.123721 -0.78364,-0.117851 -1.52015,-0.500824 -0.73063,-0.377097 -1.37875,-1.084143 -0.64814,-0.70705 -1.13128,-1.86779 -0.48313,-1.154844 -0.76008,-2.845874 -0.27692,-1.691021 -0.27692,-4.036069 v 0 -3.72968 q 0,-2.315587 0.28873,-3.965368 0.28282,-1.64389 0.77773,-2.769273 0.48904,-1.119496 1.14309,-1.7853 0.65989,-0.665801 1.39049,-1.019329 0.73654,-0.353522 1.51429,-0.465473 0.77187,-0.111955 1.5143,-0.111955 v 0 q 0.71288,0 1.46709,0.10606 0.76006,0.100165 1.48479,0.436011 0.72473,0.335851 1.37285,1.001655 0.64813,0.665803 1.14307,1.785297 0.48906,1.125386 0.77187,2.792843 0.28868,1.661564 0.28868,3.994829 v 0 3.72968 q 0,2.309694 -0.29458,3.983044 -0.29459,1.67335 -0.79541,2.834088 -0.50084,1.154844 -1.15487,1.873679 -0.65399,0.712942 -1.37872,1.113602 -0.72472,0.394769 -1.47894,0.524394 -0.74827,0.129639 -1.44353,0.129639 z m 0.0354,-3.364372 v 0 q 0.5892,0 0.99577,-0.30639 0.40654,-0.300495 0.65402,-0.989871 0.25334,-0.689371 0.3653,-1.820648 0.11201,-1.131279 0.11201,-2.804629 v 0 -5.850827 q 0,-1.679243 -0.11201,-2.816412 -0.11188,-1.137172 -0.3653,-1.838329 -0.24748,-0.701158 -0.65402,-1.007544 -0.40657,-0.312281 -0.99577,-0.312281 v 0 q -0.61868,0 -1.04291,0.312281 -0.42421,0.306386 -0.70114,1.007544 -0.27103,0.701157 -0.39477,1.838329 -0.1179,1.137169 -0.1179,2.816412 v 0 5.850827 q 0,1.67335 0.1179,2.804629 0.12374,1.131277 0.39477,1.820648 0.27693,0.689376 0.70114,0.989871 0.42423,0.30639 1.04291,0.30639 z m 9.44618,-1.867791 v 0 q 0,-0.777754 0.14729,-1.502478 0.14147,-0.724724 0.28282,-1.154846 v 0 h 3.06976 q 0,1.296255 0.12966,2.168284 0.12968,0.872024 0.42423,1.39053 0.29462,0.51261 0.78367,0.742399 0.49491,0.223902 1.20197,0.223902 v 0 q 0.98398,0 1.43176,-0.553857 0.44782,-0.553855 0.44782,-1.27858 v 0 q 0,-0.377095 -0.10009,-0.724725 -0.10587,-0.347632 -0.29461,-0.701158 -0.18855,-0.353523 -0.46546,-0.712941 -0.27696,-0.365308 -0.62456,-0.795429 v 0 l -3.19351,-3.765035 q -0.61869,-0.771864 -1.19609,-1.579077 -0.57744,-0.801324 -1.01935,-1.655673 -0.44191,-0.854353 -0.70706,-1.785299 -0.27101,-0.930948 -0.27101,-1.967955 v 0 q 0,-1.384635 0.47724,-2.398074 0.47729,-1.019325 1.27859,-1.691021 0.8013,-0.67759 1.856,-1.001653 1.04881,-0.329956 2.22722,-0.329956 v 0 q 1.29037,0 2.32736,0.312279 1.03701,0.306389 1.7794,0.930946 0.74241,0.61867 1.13718,1.543724 0.40065,0.925054 0.40065,2.150607 v 0 q 0,0.82489 -0.14731,1.602646 -0.14729,0.777753 -0.28871,1.331605 v 0 h -3.01673 q -0.0178,-1.172521 -0.10586,-2.056331 -0.0824,-0.87792 -0.31817,-1.455343 -0.23569,-0.577424 -0.63635,-0.872025 -0.40657,-0.294606 -1.06645,-0.294606 v 0 q -0.56564,0 -0.94864,0.182656 -0.37711,0.176759 -0.61278,0.471363 -0.22979,0.294605 -0.32405,0.65991 -0.1001,0.359419 -0.1001,0.742406 v 0 q 0,0.824888 0.40063,1.531938 0.39479,0.70705 1.05469,1.53783 v 0 l 3.48222,4.089103 q 0.38298,0.465473 0.88382,1.131277 0.50082,0.665805 0.94861,1.467128 0.44779,0.807212 0.76008,1.755838 0.31227,0.948622 0.31227,1.985631 v 0 q 0,1.255007 -0.40063,2.286121 -0.39479,1.025222 -1.17254,1.749946 -0.77775,0.724727 -1.90904,1.125387 -1.13128,0.394769 -2.5807,0.394769 v 0 q -1.19024,0 -2.24492,-0.265144 -1.04876,-0.271035 -1.82653,-0.883809 -0.77775,-0.612775 -1.22554,-1.61443 -0.4478,-1.001652 -0.4478,-2.46878 z m 21.07425,5.232163 v 0 q -1.53783,0 -2.71624,-0.571533 -1.18429,-0.565638 -1.99741,-1.773514 -0.80722,-1.213767 -1.22558,-3.099229 -0.41245,-1.891357 -0.41245,-4.548684 v 0 -4.489759 q 0,-2.262556 0.33586,-3.876985 0.33587,-1.614429 0.88382,-2.710352 0.54208,-1.095927 1.255,-1.73227 0.71886,-0.642238 1.47892,-0.978083 0.76007,-0.335852 1.50837,-0.430124 0.75419,-0.09428 1.39053,-0.09428 v 0 q 1.17254,0 2.26256,0.353522 1.08414,0.353529 1.91493,1.207879 0.8308,0.854348 1.31981,2.286121 0.49495,1.431775 0.49495,3.57649 v 0 q 0,0.724726 -0.047,1.467127 -0.0412,0.742402 -0.11188,1.455343 -0.0649,0.718833 -0.17679,1.390531 -0.11791,0.671695 -0.23566,1.243227 v 0 h -7.88951 v 2.415748 q 0,1.555512 0.12369,2.616083 0.1179,1.060573 0.40065,1.708703 0.2887,0.648127 0.77774,0.930945 0.49495,0.288716 1.23736,0.288716 v 0 q 0.39476,0 0.77774,-0.164983 0.37709,-0.164977 0.65991,-0.542067 0.28873,-0.382986 0.45959,-1.013438 0.17087,-0.630452 0.17087,-1.561402 v 0 -0.742399 h 3.6472 v 0.913271 q 0,3.387943 -1.61445,4.931669 -1.6144,1.543722 -4.6724,1.543722 z m -1.96795,-14.25882 h 4.38369 q 0.0178,-0.188547 0.0354,-0.50672 0.0175,-0.324065 0.0294,-0.665803 0.007,-0.347633 0.007,-0.683482 0,-0.335847 0,-0.577423 v 0 q 0,-2.350937 -0.55386,-3.382051 -0.5542,-1.037004 -1.63835,-1.037004 v 0 q -0.57155,0 -1.00165,0.265144 -0.43014,0.271035 -0.70707,0.901487 -0.27691,0.630453 -0.41242,1.661564 -0.14147,1.037006 -0.14147,2.574837 v 0 z m 2.28023,-11.236186 -2.15651,-1.8147586 5.00239,-7.1824385 2.91659,2.3686131 z"
     style="fill:#4b00d9;fill-opacity:1;stroke-width:0.589209" />
  <g
     transform="matrix(0.078125,0,0,0.078125,0.69890401,0.25989655)"
     id="g60">
    <path
       d="M 512,256 C 512,397.38672 397.38672,512 256,512 114.61328,512 0,397.38672 0,256 0,114.61328 114.61328,0 256,0 397.38672,0 512,114.61328 512,256 Z m 0,0"
       fill="url(#o_f5cl0dc5d_3)"
       id="path56"
       style="fill:url(#o_f5cl0dc5d_3)" />
    <path
       d="m 429.07031,180.66406 c -17.25781,-19.54687 -41.1914,-30.8125 -67.82031,-32.04687 -1.54688,-0.50782 -3.19531,-0.79688 -4.91016,-0.79688 -35.49609,0 -62.21875,20.44922 -80.9414,43.13281 7.11328,10.92579 12.65625,21.38672 16.69922,29.8711 14.38281,-20.71485 35.91796,-41.64453 64.23828,-41.64453 1.41797,0 2.78515,-0.20703 4.08984,-0.5586 C 398.66406,180.74609 426,212.625 426,256 c 0,44.90625 -29.29688,77.5 -69.66016,77.5 -57.63672,0 -85.84375,-81.46094 -86.11718,-82.26172 l -0.0742,-0.21484 C 268.67969,246.83594 233.20312,148.5 155.66016,148.5 c -28.58985,0 -54.41797,11.42187 -72.730472,32.16406 C 65.5625,200.33203 56,227.08594 56,256 c 0,28.91406 9.5625,55.66797 26.929688,75.33594 17.257812,19.54687 41.191402,30.8125 67.820312,32.04687 1.54687,0.50781 3.19531,0.79688 4.91016,0.79688 35.78906,0 62.375,-19.9375 80.93359,-42.29297 -7.09766,-10.92578 -12.58984,-21.39453 -16.625,-30.01953 -14.19531,20.46875 -35.57031,40.95312 -64.30859,40.95312 -1.41407,0 -2.78125,0.20703 -4.08594,0.5586 C 113.33594,331.25391 86,299.375 86,256 c 0,-44.90625 29.29688,-77.5 69.66016,-77.5 55.64453,0 85.23828,79.85547 86.16796,82.41797 2.05079,6.04687 36.0625,102.58203 114.51172,102.58203 28.58985,0 54.41797,-11.42188 72.73047,-32.16406 C 446.4375,311.66797 456,284.91406 456,256 c 0,-28.91406 -9.5625,-55.66797 -26.92969,-75.33594 z m 0,0"
       fill="#ffffff"
       id="path58" />
  </g>
</svg>
